<?xml version="1.0" encoding="utf-8"?>
<!-- Generator: Adobe Illustrator 23.0.1, SVG Export Plug-In . SVG Version: 6.00 Build 0)  -->
<svg version="1.1" xmlns="http://www.w3.org/2000/svg" xmlns:xlink="http://www.w3.org/1999/xlink" x="0px" y="0px"
	 viewBox="0 0 55 55" style="enable-background:new 0 0 55 55;" xml:space="preserve">
<style type="text/css">
	.st0{fill:#602A95;}
	.st1{fill:#FFFFFF;}
</style>
<g id="Capa_2">
	<circle class="st0" cx="27.5" cy="27.5" r="26.9"/>
</g>
<g id="Capa_1">
	<path class="st1" d="M41.9,9.1c-2.2,0-4,1.8-4,4c0,0.7,0.2,1.3,0.5,1.9l-6.6,6.6c-0.9-0.7-2-1.1-3.3-1.1s-2.4,0.4-3.3,1.1l-5.1-5.1
		c0.2-0.4,0.4-0.9,0.4-1.4c0-1.5-1.2-2.7-2.7-2.7c-1.5,0-2.7,1.2-2.7,2.7s1.2,2.7,2.7,2.7c0.5,0,1-0.1,1.4-0.4l5.1,5.1
		c-0.7,0.9-1.1,2-1.1,3.3c0,1.2,0.4,2.4,1.1,3.3l-8.5,8.5c-0.7-0.6-1.7-1-2.7-1c-2.2,0-4,1.8-4,4s1.8,4,4,4s4-1.8,4-4
		c0-0.7-0.2-1.3-0.5-1.9l8.6-8.6c0.7,0.6,1.6,1,2.6,1.1v6.8c-1.9,0.3-3.4,2-3.4,4c0,2.2,1.8,4,4,4s4-1.8,4-4c0-2-1.5-3.6-3.4-4v-6.8
		c1-0.1,1.9-0.5,2.6-1.1l5.1,5.1c-0.2,0.4-0.4,0.9-0.4,1.4c0,1.5,1.2,2.7,2.7,2.7c1.5,0,2.7-1.2,2.7-2.7c0-1.5-1.2-2.7-2.7-2.7
		c-0.5,0-1,0.1-1.4,0.4l-5.1-5.1c0.7-0.9,1.1-2,1.1-3.3c0-1.2-0.4-2.4-1.1-3.3l6.5-6.5c0.7,0.6,1.7,1,2.7,1c2.2,0,4-1.8,4-4
		S44.1,9.1,41.9,9.1z M16.4,15.1c0-0.7,0.6-1.3,1.3-1.3s1.3,0.6,1.3,1.3c0,0.7-0.6,1.3-1.3,1.3S16.4,15.8,16.4,15.1z M13.1,43.2
		c-1.5,0-2.7-1.2-2.7-2.7c0-1.5,1.2-2.7,2.7-2.7s2.7,1.2,2.7,2.7C15.8,42,14.6,43.2,13.1,43.2z M31.2,41.9c0,1.5-1.2,2.7-2.7,2.7
		s-2.7-1.2-2.7-2.7c0-1.5,1.2-2.7,2.7-2.7S31.2,40.4,31.2,41.9z M28.5,29.8c-2.2,0-4-1.8-4-4s1.8-4,4-4s4,1.8,4,4
		S30.7,29.8,28.5,29.8z M40.6,36.5c0,0.7-0.6,1.3-1.3,1.3s-1.3-0.6-1.3-1.3s0.6-1.3,1.3-1.3S40.6,35.8,40.6,36.5z M41.9,15.8
		c-1.5,0-2.7-1.2-2.7-2.7s1.2-2.7,2.7-2.7c1.5,0,2.7,1.2,2.7,2.7S43.4,15.8,41.9,15.8z"/>
</g>
</svg>
